<svg xmlns="http://www.w3.org/2000/svg" viewBox="0 0 210.3 94.17"><defs><style>.cls-1{fill:#fff;}</style></defs><g id="Layer_2" data-name="Layer 2"><g id="Layer_1-2" data-name="Layer 1"><path class="cls-1" d="M32.53,82.51h6.8V84h-5v3.19h4.22v1.53H34.34v3.7H39.5V94h-7Z"/><path class="cls-1" d="M43.94,88.05l-3.1-5.54h2l1.39,2.68c.28.53.53,1,.87,1.73h.08c.3-.69.52-1.2.78-1.73l1.36-2.68h1.91l-3.1,5.64L49.47,94h-2l-1.51-2.85-1-1.87h-.06L44,91.12,42.56,94H40.64Z"/><path class="cls-1" d="M51.22,82.51H54.7c2.57,0,4.39.87,4.39,3.46s-1.82,3.65-4.32,3.65H53V94H51.22Zm3.37,5.67c1.85,0,2.72-.7,2.72-2.21s-1-2-2.78-2H53v4.22Z"/><path class="cls-1" d="M67.61,94,65,89.34H63.14V94H61.33V82.51h3.76c2.38,0,4.16.84,4.16,3.32a3.18,3.18,0,0,1-2.41,3.28L69.66,94ZM63.14,87.9h1.74c1.67,0,2.57-.69,2.57-2.07S66.55,84,64.88,84H63.14Z"/><path class="cls-1" d="M71.57,82.51h6.79V84h-5v3.19H77.6v1.53H73.38v3.7h5.15V94h-7Z"/><path class="cls-1" d="M80.13,92.49l1.06-1.25a4.47,4.47,0,0,0,3.06,1.36c1.39,0,2.18-.66,2.18-1.62s-.79-1.37-1.85-1.84L83,88.46a3.3,3.3,0,0,1-2.34-3c0-1.8,1.59-3.16,3.78-3.16a4.91,4.91,0,0,1,3.48,1.45l-1,1.15a3.66,3.66,0,0,0-2.53-1c-1.18,0-1.94.56-1.94,1.47s.92,1.36,1.86,1.73l1.58.67a3.22,3.22,0,0,1,2.34,3.1c0,1.84-1.53,3.33-4,3.33A5.73,5.73,0,0,1,80.13,92.49Z"/><path class="cls-1" d="M89.37,92.49l1.06-1.25a4.45,4.45,0,0,0,3.06,1.36c1.39,0,2.17-.66,2.17-1.62s-.78-1.37-1.84-1.84l-1.6-.68a3.31,3.31,0,0,1-2.34-3c0-1.8,1.6-3.16,3.78-3.16a4.91,4.91,0,0,1,3.48,1.45l-1,1.15a3.65,3.65,0,0,0-2.53-1c-1.17,0-1.94.56-1.94,1.47s.93,1.36,1.86,1.73l1.58.67a3.2,3.2,0,0,1,2.34,3.1c0,1.84-1.53,3.33-4,3.33A5.72,5.72,0,0,1,89.37,92.49Z"/><path class="cls-1" d="M102.57,88.27c0-3.74,2.28-6,5.19-6A4.45,4.45,0,0,1,111,83.74l-1,1.15a3.11,3.11,0,0,0-2.25-1c-2,0-3.36,1.65-3.36,4.34s1.28,4.39,3.31,4.39a3.36,3.36,0,0,0,2.55-1.22l1,1.14a4.57,4.57,0,0,1-3.58,1.65C104.79,94.17,102.57,92,102.57,88.27Z"/><path class="cls-1" d="M118.6,90.7h-4l-1,3.27h-1.85l3.82-11.46h2.09L121.49,94h-1.92Zm-.44-1.42-.45-1.54c-.39-1.24-.73-2.52-1.09-3.81h-.06c-.33,1.3-.69,2.57-1.07,3.81L115,89.28Z"/><path class="cls-1" d="M129.29,94l-2.61-4.63h-1.86V94H123V82.51h3.76c2.38,0,4.16.84,4.16,3.32a3.18,3.18,0,0,1-2.41,3.28L131.33,94Zm-4.47-6.07h1.74c1.67,0,2.57-.69,2.57-2.07s-.9-1.87-2.57-1.87h-1.74Z"/><path class="cls-1" d="M135.59,82.51h1.87l1.08,6,.61,3.68h.06c.25-1.23.52-2.46.79-3.68l1.48-6h1.59l1.5,6c.27,1.2.52,2.43.78,3.68h.08c.19-1.25.39-2.48.58-3.68l1.09-6h1.74L146.57,94h-2.23l-1.55-6.37c-.2-.9-.37-1.76-.53-2.63h-.08c-.15.87-.34,1.73-.53,2.63L140.14,94H138Z"/><path class="cls-1" d="M156,90.7h-4l-1,3.27h-1.84L153,82.51h2.09L158.93,94H157Zm-.43-1.42-.46-1.54c-.39-1.24-.73-2.52-1.09-3.81H154c-.33,1.3-.69,2.57-1.07,3.81l-.46,1.54Z"/><path class="cls-1" d="M159.64,92.49l1.06-1.25a4.47,4.47,0,0,0,3.06,1.36c1.39,0,2.18-.66,2.18-1.62s-.79-1.37-1.85-1.84l-1.59-.68a3.3,3.3,0,0,1-2.34-3c0-1.8,1.59-3.16,3.78-3.16a4.91,4.91,0,0,1,3.48,1.45l-.95,1.15a3.66,3.66,0,0,0-2.53-1c-1.18,0-1.94.56-1.94,1.47s.92,1.36,1.86,1.73l1.58.67a3.2,3.2,0,0,1,2.34,3.1c0,1.84-1.53,3.33-4.05,3.33A5.75,5.75,0,0,1,159.64,92.49Z"/><path class="cls-1" d="M170,82.51h1.82v4.67h4.92V82.51h1.81V94h-1.81V88.75h-4.92V94H170Z"/><path class="cls-1" d="M137.78,26.21c-2.74-.95-5.51-1.8-8.58-2.74-2.56-.79-5.33-1.55-8.72-2.41l-1.94-.48L114,24.17c1.91.3,3.79.6,5.58.91,2.52.46,5.08,1,7.56,1.49l1.17.24c3.83.8,7.73,1.68,11.5,2.54l6,1.34.44-1.47C143.24,28.1,140.47,27.11,137.78,26.21Z"/><path class="cls-1" d="M91,17c-2.13,0-4.34.08-6.79.23-3,.2-6.06.54-9.13,1s-6,1.05-9,1.76c-3.23.74-6.41,1.66-8.83,2.38-1.39.42-2.87.88-4.34,1.38s-2.78,1-4.11,1.42L46.57,26c-.62.22-1.33.47-2,.69-1.26.42-2.61.82-4.15,1.23a73.4,73.4,0,0,1-8.46,1.73c-.68.09-1.41.2-2.14.27s-1.35.14-2.15.2c-1.36.13-2.76.2-4.29.23H22.19a56.26,56.26,0,0,1-7.44-.48c-1.29-.17-2.66-.42-4.2-.75-.65-.14-1.32-.31-2.05-.51S7.1,28.21,6.59,28L4.7,27.28,3.06,30.79c-.08.21-.16.41-.25.61-.17.4-.34.81-.5,1.23-.07.21-.15.42-.23.62-.15.41-.3.82-.44,1.28s-.4,1.24-.55,1.86-.32,1.29-.45,2S.42,39.5.34,40.07l0,.26,0,.33c-.07.54-.14,1.09-.17,1.62S0,43.32,0,43.81v.8c0,.55,0,1.12.06,1.66,0,.32,0,.66.08,1l0,.26c0,.25,0,.5.09.72.08.58.19,1.2.35,2s.3,1.29.49,1.92.43,1.34.64,1.88.51,1.24.79,1.82a17.09,17.09,0,0,0,2.1,3.37l1.25-.89a17.49,17.49,0,0,1-1.51-3.26,24.52,24.52,0,0,1-1-3.48c-.11-.59-.2-1.19-.27-1.78S3,48.55,3,48c0-.73,0-1.28,0-1.81s0-.95.07-1.45l0-.31L3.14,44c0-.45.1-.88.18-1.34s.16-.91.26-1.39l.06-.33.06-.25c.13-.52.24-1,.39-1.49l0-.08c.17-.56.33-1.09.53-1.65s.37-1.05.62-1.69c.13-.34.28-.68.44-1L6,34.14c.16-.35.33-.68.5-1l.26-.54.48.18c.8.27,1.54.5,2.26.7a44.18,44.18,0,0,0,4.58,1,59.82,59.82,0,0,0,9.27.9c.52,0,1,0,1.55,0a66.64,66.64,0,0,0,7.74-.47,77.64,77.64,0,0,0,9.12-1.63c1.66-.4,3.12-.79,4.46-1.2.8-.22,1.57-.47,2.23-.69l2.14-.71C53.06,29.85,55.65,29,59,28c3.08-.9,5.86-1.64,8.51-2.25,1-.26,2.13-.49,3.18-.72l1.07-.23,1.07-.2c1.06-.2,2.16-.41,3.25-.58,2.85-.49,5.76-.86,8.64-1.1L86,22.84l7.24-5.77Z"/><polygon class="cls-1" points="121.49 0 93.64 22.21 101.24 22.21 88.87 38.78 116.63 16.63 108.98 16.63 121.49 0"/><path class="cls-1" d="M208.27,59.15,208,54.26l-.19-4.21c-1-.57-2.12-1.17-3.54-1.84S201.6,47,200,46.32c-3.16-1.26-6-2.25-8.76-3-2.93-.85-6-1.59-9-2.19s-6.05-1.05-9.14-1.39c-1.52-.17-3.06-.31-4.6-.41-.71,0-1.57-.1-2.3-.13s-1.5-.06-2.26-.06h-.9c-2.57,0-5.28.11-8.29.35-2.84.23-5.87.57-9.25,1-3.15.44-6.33.92-9.31,1.38s-6.14,1-9.41,1.43c-3.43.5-6.55.89-9.53,1.19s-6.33.55-9.65.67c-1.31,0-2.63.07-3.93.07-1.94,0-3.89-.05-5.8-.15A89.68,89.68,0,0,1,88.22,44a81.12,81.12,0,0,1-9.5-2.14,78.06,78.06,0,0,1-9.12-3.27A77.78,77.78,0,0,1,61,34.24l.67-1.39c3.13,1.22,6,2.23,8.9,3.08,1.31.38,2.7.76,4.52,1.22,1.41.34,3,.7,4.53,1,3.27.61,6.28,1,9.19,1.29s6,.38,8.87.38h.38c3,0,6-.13,9.27-.39,2.68-.2,5.62-.52,9.27-1,3.07-.4,6.14-.88,9.29-1.38l9.35-1.53c2.57-.42,6-1,9.47-1.41,1.66-.21,3.27-.4,4.8-.56s3.17-.29,4.84-.4,3.27-.17,4.88-.2h1.24c1.18,0,2.42,0,3.68.07.81,0,1.64.08,2.48.14s1.59.12,2.45.22c1.61.18,3.24.4,4.83.64a95.93,95.93,0,0,1,9.55,2c1.69.44,3.31.93,4.67,1.36s3,1,4.6,1.64a74.52,74.52,0,0,1,8.86,4,52.14,52.14,0,0,1,8.22,5.29l.5.4-.25,5.5-.24,4.9Z"/><path class="cls-1" d="M17.05,63.61h9.16a1,1,0,0,1,1,1h3.61A4.58,4.58,0,0,0,26.21,60H17.05a4.58,4.58,0,1,0,0,9.15l9.16,0a1,1,0,0,1,0,1.94H17.05a1,1,0,0,1-1-1H12.47a4.59,4.59,0,0,0,4.58,4.58h9.16a4.59,4.59,0,0,0,0-9.17H17.05a1,1,0,0,1,0-2Z"/><path class="cls-1" d="M193.26,65.56H184.1a1,1,0,0,1,0-2h9.15a1,1,0,0,1,1,1h3.61A4.58,4.58,0,0,0,193.25,60H184.1a4.58,4.58,0,0,0,0,9.16h9.16a1,1,0,0,1,0,2H184.1a1,1,0,0,1-1-1h-3.61a4.59,4.59,0,0,0,4.58,4.58h9.15a4.59,4.59,0,0,0,0-9.17Z"/><path class="cls-1" d="M66,60H56.79a4.58,4.58,0,0,0-4.58,4.57V74.73h3.61V64.58a1,1,0,0,1,1-1H66a1,1,0,0,1,1,1v2.8H58.42V71h8.49v3.74h3.61V64.58A4.58,4.58,0,0,0,66,60Z"/><path class="cls-1" d="M174.4,70.24a1,1,0,0,1-1,1h-9.15a1,1,0,0,1-1-1V60H159.7V70.24a4.58,4.58,0,0,0,4.58,4.57h9.15A4.58,4.58,0,0,0,178,70.24V60H174.4Z"/><path class="cls-1" d="M46.49,60H32.76v3.6H46.49a1,1,0,0,1,0,1.94H32.76v9.18h3.61V69.16H46.49a4.58,4.58,0,1,0,0-9.15Z"/><path class="cls-1" d="M134,60H120.27v3.6H134a1,1,0,0,1,0,1.94H120.27v9.18h3.61V69.16H134A4.58,4.58,0,1,0,134,60Z"/><path class="cls-1" d="M90.56,64.58A4.58,4.58,0,0,0,86,60H72.63v3.6H86a1,1,0,0,1,0,1.94H72.26v9.18h3.6V69.16h7l3.77,5.57H91L87.14,69A4.55,4.55,0,0,0,90.56,64.58Z"/><polygon class="cls-1" points="143.51 60.01 139.9 60.01 139.9 74.72 157.42 74.72 157.42 71.12 143.51 71.12 143.51 60.01"/><polygon class="cls-1" points="102.78 60.01 96.78 64.11 96.78 60.01 93.17 60.01 93.17 74.72 96.78 74.72 96.78 70.89 102.6 74.72 109.16 74.72 98.21 67.51 109.16 60.01 102.78 60.01"/></g></g></svg>