<svg 
 xmlns="http://www.w3.org/2000/svg"
 xmlns:xlink="http://www.w3.org/1999/xlink"
 width="613px" height="54px">
<defs>
<filter filterUnits="userSpaceOnUse" id="Filter_0" x="0px" y="0px" width="613px" height="54px"  >
    <feOffset in="SourceAlpha" dx="1.147" dy="1.638" />
    <feGaussianBlur result="blurOut" stdDeviation="1.414" />
    <feFlood flood-color="rgb(148, 6, 24)" result="floodOut" />
    <feComposite operator="atop" in="floodOut" in2="blurOut" />
    <feComponentTransfer><feFuncA type="linear" slope="1"/></feComponentTransfer>
    <feMerge>
    <feMergeNode/>
    <feMergeNode in="SourceGraphic"/>
  </feMerge>
</filter>

</defs>
<g filter="url(#Filter_0)">
<path fill-rule="evenodd"  fill="rgb(255, 255, 255)"
 d="M594.952,12.565 L564.850,12.565 C563.94,12.565 561.666,14.12 561.666,15.793 C561.666,17.574 563.94,19.50 564.850,19.50 L594.963,19.50 C603.252,19.50 610.2,25.922 610.2,34.331 C610.2,42.743 603.252,49.585 594.952,49.585 L564.850,49.585 C556.550,49.585 549.799,42.743 549.799,34.331 L561.666,34.331 C561.666,36.112 563.94,37.560 564.850,37.560 L594.952,37.560 C596.707,37.560 598.135,36.112 598.135,34.331 C598.135,32.552 596.707,31.76 594.952,31.76 L564.838,31.76 C556.550,31.76 549.799,24.204 549.799,15.793 C549.799,7.381 556.550,0.539 564.850,0.539 L594.952,0.539 C603.252,0.539 610.2,7.381 610.2,15.793 L598.135,15.793 C598.135,14.12 596.707,12.565 594.952,12.565 ZM529.785,49.879 L499.684,49.879 C491.383,49.879 484.633,43.37 484.633,34.627 L484.633,0.539 L496.500,0.539 L496.500,34.627 C496.500,36.406 497.928,37.853 499.684,37.853 L529.785,37.853 C531.541,37.853 532.970,36.406 532.970,34.627 L532.970,0.539 L544.836,0.539 L544.836,34.627 C544.836,43.37 538.86,49.879 529.785,49.879 ZM419.522,0.539 L431.389,0.539 L431.389,37.560 L477.135,37.560 L477.135,49.585 L419.522,49.585 L419.522,0.539 ZM400.129,31.46 L366.843,31.46 L366.843,49.585 L354.976,49.585 L354.976,19.21 L400.129,19.21 C401.887,19.21 403.316,17.574 403.316,15.793 C403.316,14.12 401.887,12.565 400.129,12.565 L354.976,12.565 L354.976,0.539 L400.129,0.539 C408.429,0.539 415.182,7.381 415.182,15.793 C415.182,24.204 408.429,31.46 400.129,31.46 ZM296.886,49.585 L277.741,36.795 L277.741,49.585 L265.874,49.585 L265.874,0.539 L277.741,0.539 L277.741,14.225 L297.454,0.539 L318.443,0.539 L282.441,25.533 L318.443,49.585 L296.886,49.585 ZM244.512,49.585 L232.91,31.46 L208.971,31.46 L208.971,49.585 L197.104,49.585 L197.104,19.21 L242.256,19.21 C244.12,19.21 245.440,17.574 245.440,15.793 C245.440,14.12 244.12,12.565 242.256,12.565 L198.341,12.565 L198.341,0.539 L242.256,0.539 C250.557,0.539 257.307,7.381 257.307,15.793 C257.307,22.864 252.513,28.771 246.61,30.491 L258.855,49.585 L244.512,49.585 ZM179.544,37.138 L151.613,37.138 L151.613,25.113 L179.544,25.113 L179.544,15.793 C179.544,14.12 178.116,12.565 176.360,12.565 L146.258,12.565 C144.503,12.565 143.75,14.12 143.75,15.793 L143.75,49.585 L131.208,49.585 L131.208,15.793 C131.208,7.381 137.958,0.539 146.258,0.539 L176.360,0.539 C184.661,0.539 191.411,7.381 191.411,15.793 L191.411,49.585 L179.544,49.585 L179.544,37.138 ZM112.394,31.46 L79.108,31.46 L79.108,49.585 L67.241,49.585 L67.241,19.21 L112.394,19.21 C114.150,19.21 115.578,17.574 115.578,15.793 C115.578,14.12 114.150,12.565 112.394,12.565 L67.241,12.565 L67.241,0.539 L112.394,0.539 C120.694,0.539 127.444,7.381 127.444,15.793 C127.444,24.204 120.694,31.46 112.394,31.46 ZM15.591,19.50 L45.704,19.50 C53.993,19.50 60.743,25.922 60.743,34.331 C60.743,42.743 53.993,49.585 45.692,49.585 L15.591,49.585 C7.290,49.585 0.537,42.743 0.537,34.331 L12.404,34.331 C12.404,36.112 13.832,37.560 15.591,37.560 L45.692,37.560 C47.448,37.560 48.876,36.112 48.876,34.331 C48.876,32.552 47.448,31.105 45.692,31.105 L15.579,31.46 C7.290,31.46 0.537,24.204 0.537,15.793 C0.537,7.381 7.290,0.539 15.591,0.539 L45.692,0.539 C53.993,0.539 60.743,7.381 60.743,15.793 L48.876,15.793 C48.876,14.12 47.448,12.565 45.692,12.565 L15.591,12.565 C13.832,12.565 12.404,14.12 12.404,15.793 C12.404,17.574 13.832,19.50 15.591,19.50 Z"/>
</g>
</svg>