<svg xmlns="http://www.w3.org/2000/svg" viewBox="0 0 132 78"><defs><style>.cls-1,.cls-2,.cls-3{fill:none;}.cls-1{stroke:#b81c25;fill-rule:evenodd;}.cls-1,.cls-2{stroke-linecap:round;stroke-linejoin:round;stroke-width:4px;}.cls-2{stroke:#ae1e25;}</style></defs><g id="Layer_2" data-name="Layer 2"><g id="Layer_1-2" data-name="Layer 1"><path class="cls-1" d="M90.68,48.63c-10.13,1.33-13-10-13-10h-13a4,4,0,0,1,0-8h23.5a19.5,19.5,0,0,1,0,39H51.68a4,4,0,0,1,0-8h16"/><path class="cls-1" d="M78.32,49.57v6.49A5.31,5.31,0,0,1,73,61.37H29.63a5.31,5.31,0,0,1-5.31-5.31V21.68a5.31,5.31,0,0,1,5.31-5.31H73a5.31,5.31,0,0,1,5.31,5.31v7.23"/><line class="cls-2" x1="33" y1="26.23" x2="56.3" y2="26.23"/><line class="cls-2" x1="33" y1="33.96" x2="53" y2="33.96"/><line class="cls-2" x1="33" y1="51.99" x2="67.5" y2="51.99"/><rect class="cls-3" width="132" height="78"/></g></g></svg>