<svg xmlns="http://www.w3.org/2000/svg" viewBox="0 0 132 78"><defs><style>.cls-1,.cls-3,.cls-4{fill:none;}.cls-1,.cls-3{stroke:#b81c25;stroke-linecap:round;stroke-linejoin:round;stroke-width:4px;}.cls-2{fill:#af1f26;}.cls-3{stroke-dasharray:8.96 8.96;}</style></defs><g id="Layer_2" data-name="Layer 2"><g id="Layer_1-2" data-name="Layer 1"><path class="cls-1" d="M109.44,37a1.42,1.42,0,0,0,1.5-1.5V25a7.43,7.43,0,0,0-7.5-7.51H28.56A7.43,7.43,0,0,0,21.06,25V35.5a1.17,1.17,0,0,0,.45,1,1.24,1.24,0,0,0,1.2.45h.6a6,6,0,1,1,0,12h-.6a1.49,1.49,0,0,0-1.65,1.35V61a7.43,7.43,0,0,0,7.5,7.51h74.88a7.43,7.43,0,0,0,7.5-7.51V50.5a1.42,1.42,0,0,0-1.5-1.5,6,6,0,0,1,0-12Z"/><path class="cls-2" d="M58.93,32.47a8.54,8.54,0,1,1,8.57,8.32A8.31,8.31,0,0,1,58.93,32.47Zm28.82-5.41,2.82,2.09L64.83,57.53,62,55.38ZM71.2,32.47a3.73,3.73,0,1,0-3.76,3.75A3.65,3.65,0,0,0,71.2,32.47Zm4.44,21.06a8.54,8.54,0,1,1,8.56,8.31A8.31,8.31,0,0,1,75.64,53.53Zm12.27,0a3.74,3.74,0,1,0-3.76,3.74A3.65,3.65,0,0,0,87.91,53.53Z"/><line class="cls-1" x1="48.21" y1="17.49" x2="48.21" y2="22.15"/><line class="cls-3" x1="48.21" y1="30.49" x2="48.21" y2="59.68"/><line class="cls-1" x1="48.21" y1="63.85" x2="48.21" y2="68.51"/><rect class="cls-4" width="132" height="78"/></g></g></svg>