<?xml version="1.0" encoding="utf-8"?>
<!-- Generator: Adobe Illustrator 26.2.1, SVG Export Plug-In . SVG Version: 6.00 Build 0)  -->
<svg version="1.1" id="Layer_1" xmlns="http://www.w3.org/2000/svg" xmlns:xlink="http://www.w3.org/1999/xlink" x="0px" y="0px"
	 viewBox="0 0 100 100" style="enable-background:new 0 0 100 100;" xml:space="preserve">
<style type="text/css">
	.st0{fill:none;stroke:#FFFFFF;stroke-width:4;stroke-linecap:round;stroke-linejoin:round;}
	.st1{fill:none;}
</style>
<g id="a">
</g>
<g id="b">
	<g id="c">
		<g>
			<g>
				<path class="st0" d="M74.7,55.6c-10.1,1.3-13-10-13-10h-13c-2.2,0-4-1.8-4-4s1.8-4,4-4h23.5c10.8,0,19.5,8.7,19.5,19.5
					s-8.7,19.5-19.5,19.5H35.7c-2.2,0-4-1.8-4-4s1.8-4,4-4h16"/>
				<path class="st0" d="M62.3,56.6v6.5c0,2.9-2.4,5.3-5.3,5.3H13.6c-2.9,0-5.3-2.4-5.3-5.3l0,0V28.7c0-2.9,2.4-5.3,5.3-5.3H57
					c2.9,0,5.3,2.4,5.3,5.3v7.2"/>
				<line class="st0" x1="17" y1="33.2" x2="40.3" y2="33.2"/>
				<line class="st0" x1="17" y1="41" x2="37" y2="41"/>
				<line class="st0" x1="17" y1="59" x2="51.5" y2="59"/>
			</g>
			<rect class="st1" width="100" height="100"/>
		</g>
	</g>
</g>
</svg>
