<?xml version="1.0" encoding="utf-8"?>
<!-- Generator: Adobe Illustrator 26.2.1, SVG Export Plug-In . SVG Version: 6.00 Build 0)  -->
<svg version="1.1" id="Layer_1" xmlns="http://www.w3.org/2000/svg" xmlns:xlink="http://www.w3.org/1999/xlink" x="0px" y="0px"
	 viewBox="0 0 100 100" style="enable-background:new 0 0 100 100;" xml:space="preserve">
<style type="text/css">
	.st0{fill:none;stroke:#FFFFFF;stroke-width:4;stroke-linecap:round;stroke-linejoin:round;}
	.st1{fill:#FFFFFF;}
	.st2{fill:none;stroke:#FFFFFF;stroke-width:4;stroke-linecap:round;stroke-linejoin:round;stroke-dasharray:0,0,8.96,8.96;}
	.st3{fill:none;}
</style>
<g id="a">
</g>
<g id="b">
	<g id="c">
		<g>
			<path class="st0" d="M91.4,44.3c0.8,0,1.4-0.5,1.4-1.3c0,0,0-0.1,0-0.2v-10c0-3.9-3.1-7.1-7-7.1c-0.1,0-0.1,0-0.1,0H14.3
				c-3.9,0-7.1,3.1-7.1,7c0,0,0,0.1,0,0.1v10c0,0.4,0.1,0.7,0.4,1c0.3,0.3,0.7,0.5,1.1,0.4h0.6c3.2,0,5.7,2.6,5.7,5.7
				s-2.6,5.7-5.7,5.7H8.8c-0.8-0.1-1.5,0.5-1.6,1.2v10.2c-0.1,3.9,3.1,7.1,7,7.2c0.1,0,0.1,0,0.1,0h71.3c3.9,0,7.1-3.1,7.1-7
				c0-0.1,0-0.1,0-0.1v-10c0-0.8-0.5-1.4-1.3-1.4c-0.1,0-0.1,0-0.2,0c-3.2,0-5.7-2.6-5.7-5.7S88.2,44.3,91.4,44.3L91.4,44.3z"/>
			<path class="st1" d="M43.3,40c-0.1-4.5,3.4-8.2,7.9-8.3c4.5-0.1,8.2,3.4,8.3,7.9s-3.4,8.2-7.9,8.3c-0.1,0-0.1,0-0.2,0
				c-4.4,0.1-8-3.3-8.2-7.7C43.3,40.1,43.3,40.1,43.3,40z M70.7,34.8l2.7,2l-24.5,27l-2.7-2C46.2,61.8,70.7,34.8,70.7,34.8z M55,40
				c0-2-1.6-3.5-3.6-3.5c-2,0-3.5,1.6-3.5,3.6c0,1.9,1.6,3.5,3.5,3.5c1.9,0.1,3.5-1.5,3.6-3.4C55,40.1,55,40,55,40z M59.2,60
				c-0.1-4.5,3.4-8.2,7.9-8.3s8.2,3.4,8.3,7.9s-3.4,8.2-7.9,8.4c-0.1,0-0.1,0-0.2,0c-4.4,0.1-8-3.3-8.2-7.7
				C59.2,60.2,59.2,60.1,59.2,60z M70.9,60c0-2-1.6-3.6-3.6-3.6s-3.6,1.6-3.6,3.6c0,2,1.6,3.5,3.5,3.6c1.9,0.1,3.5-1.5,3.6-3.4
				C70.9,60.2,70.9,60.1,70.9,60z"/>
			<line class="st0" x1="33.1" y1="25.7" x2="33.1" y2="30.1"/>
			<line class="st2" x1="33.1" y1="38.1" x2="33.1" y2="65.9"/>
			<line class="st0" x1="33.1" y1="69.9" x2="33.1" y2="74.3"/>
		</g>
		<rect class="st3" width="100" height="100"/>
	</g>
</g>
</svg>
