<?xml version="1.0" encoding="UTF-8"?><svg xmlns="http://www.w3.org/2000/svg" viewBox="0 0 43.77 58.15"><defs><style>.d{fill:#fff;}</style></defs><g id="a"/><g id="b"><g id="c"><path class="d" d="M31,21.86c0,5.03-4.08,9.11-9.12,9.11s-9.12-4.08-9.12-9.11,4.08-9.11,9.12-9.11,9.12,4.08,9.12,9.11Zm-9.12-3.64c-2.02,0-3.65,1.63-3.65,3.64s1.63,3.64,3.65,3.64,3.65-1.63,3.65-3.64-1.63-3.64-3.65-3.64Zm21.88,3.64c0,9.95-13.33,27.67-19.18,34.98-1.4,1.74-4,1.74-5.4,0C13.23,49.53,0,31.81,0,21.86,0,9.79,9.8,0,21.88,0s21.88,9.79,21.88,21.86h0ZM21.88,5.47C12.82,5.47,5.47,12.81,5.47,21.86c0,1.41,.51,3.6,1.74,6.51,1.19,2.82,2.89,5.94,4.84,9.1,3.24,5.26,7,10.25,9.82,13.96,2.83-3.71,6.59-8.7,9.82-13.96,1.95-3.15,3.65-6.27,4.84-9.1,1.23-2.91,1.74-5.1,1.74-6.51,0-9.05-7.35-16.4-16.41-16.4h0Z"/></g></g></svg>