<?xml version="1.0" encoding="UTF-8"?><svg xmlns="http://www.w3.org/2000/svg" viewBox="0 0 100 60"><defs><style>.d{stroke-dasharray:0 0 0 0 0 0 8.96 8.96;}.d,.e,.f{fill:none;}.d,.f{stroke:#2c2c2c;stroke-linecap:round;stroke-linejoin:round;stroke-width:4px;}.g{fill:#2c2c2c;}</style></defs><g id="a"/><g id="b"><g id="c"><g><path class="f" d="M91.37,24.29c.75,.04,1.39-.53,1.43-1.27V12.86c.04-3.91-3.09-7.11-7-7.15H14.34c-3.91-.04-7.11,3.1-7.14,7.01v10.14c-.02,.37,.14,.73,.43,.95,.27,.34,.71,.51,1.14,.43h.57c3.16,0,5.71,2.56,5.71,5.71s-2.56,5.71-5.71,5.71h-.57c-.78-.09-1.48,.47-1.57,1.25v10.22c-.05,3.91,3.09,7.11,7,7.15H85.66c3.91,.04,7.11-3.1,7.14-7.01v-10.14c.04-.75-.53-1.39-1.27-1.43h-.16c-3.16,0-5.71-2.56-5.71-5.71s2.56-5.71,5.71-5.71h0Z"/><path class="g" d="M43.27,19.97c-.12-4.49,3.43-8.22,7.92-8.34,4.49-.12,8.22,3.43,8.34,7.92,.12,4.49-3.43,8.22-7.92,8.34h-.18c-4.37,.14-8.02-3.29-8.16-7.66v-.26Zm27.45-5.15l2.69,1.99-24.52,27.03-2.7-2.05,24.53-26.97Zm-15.76,5.15c0-1.96-1.61-3.54-3.57-3.53-1.96,0-3.54,1.61-3.53,3.57,0,1.94,1.58,3.52,3.52,3.53,1.92,.06,3.52-1.45,3.58-3.37v-.2Zm4.23,20.06c-.12-4.49,3.42-8.23,7.91-8.35s8.23,3.42,8.35,7.91-3.42,8.23-7.91,8.35h-.2c-4.37,.13-8.02-3.3-8.15-7.67v-.24Zm11.69,0c0-1.97-1.59-3.56-3.56-3.56s-3.56,1.59-3.56,3.56,1.58,3.55,3.54,3.56c1.92,.06,3.52-1.45,3.58-3.37v-.19Z"/><line class="f" x1="33.06" y1="5.7" x2="33.06" y2="10.14"/><line class="d" x1="33.06" y1="18.08" x2="33.06" y2="45.89"/><line class="f" x1="33.06" y1="49.86" x2="33.06" y2="54.3"/><rect class="e" width="100" height="60"/></g></g></g></svg>