<?xml version="1.0" encoding="UTF-8"?><svg xmlns="http://www.w3.org/2000/svg" viewBox="0 0 84.49 56.99"><defs><style>.d{stroke-dasharray:0 0 7.64 4.77;}.d,.e{fill:none;stroke:#da181d;stroke-miterlimit:10;stroke-width:3px;}.f{fill:#faffb1;}.g{fill:#da181d;}</style></defs><g id="a"/><g id="b"><g id="c"><g><path class="f" d="M9.56,53.99c-3.68,0-6.56-2.83-6.56-6.44v-11.11c.03-.08,.08-.13,.09-.13l.18,.04h.64c4.38,0,7.95-3.52,7.95-7.85s-3.57-7.85-7.95-7.85h-.81l-.1-.15V9.44c0-3.61,2.88-6.44,6.56-6.44H74.93c3.68,0,6.56,2.83,6.56,6.44v11.12s0,.07,0,.09c0,0,0,0-.02,0-.02,0-.05,0-.08,0-4.38,0-7.95,3.52-7.95,7.85s3.57,7.85,7.95,7.85c.05,0,.09,0,.11,.01,0,.01,0,11.19,0,11.19,0,3.61-2.88,6.44-6.56,6.44H9.56Z"/><path class="g" d="M74.93,4.5c2.84,0,5.06,2.17,5.06,4.94v9.8c-4.55,.67-8.06,4.56-8.06,9.25s3.51,8.58,8.06,9.25v9.8c0,2.77-2.22,4.94-5.06,4.94H9.56c-2.84,0-5.06-2.17-5.06-4.94v-9.72c4.94-.3,8.87-4.37,8.87-9.33s-3.93-9.04-8.87-9.33V9.44c0-2.77,2.22-4.94,5.06-4.94H74.93m0-3H9.56C5.05,1.5,1.5,4.99,1.5,9.44v11.12c0,.48,.16,.95,.48,1.11,.32,.48,.81,.48,1.29,.48h.64c3.55,0,6.45,2.86,6.45,6.35s-2.9,6.35-6.45,6.35h-.64c-.08-.02-.17-.02-.25-.02-.72,0-1.38,.6-1.52,1.45v11.27c0,4.45,3.55,7.94,8.06,7.94H74.93c4.51,0,8.06-3.49,8.06-7.94v-11.12c0-.95-.64-1.59-1.61-1.59-3.55,0-6.45-2.86-6.45-6.35s2.9-6.35,6.45-6.35c.97,0,1.61-.64,1.61-1.59V9.44c0-4.45-3.55-7.94-8.06-7.94h0Z"/></g><g><line class="e" x1="18.37" y1="3.41" x2="18.37" y2="7.41"/><line class="d" x1="18.37" y1="12.18" x2="18.37" y2="47.03"/><line class="e" x1="18.37" y1="49.41" x2="18.37" y2="53.41"/></g><g><path class="f" d="M55.54,46.54c-3.86,0-6.88-2.92-6.88-6.64s2.96-6.64,6.88-6.64,6.83,2.86,6.83,6.64-3,6.64-6.83,6.64Zm-.05-11.86c-2.92,0-5.13,2.24-5.13,5.21s2.21,5.16,5.13,5.16,5.18-2.27,5.18-5.16-2.23-5.21-5.18-5.21Zm-19.46,6.83l23.18-25.51,.34,.25-23.16,25.53-.36-.28Zm3.16-15.58c-3.86,0-6.88-2.92-6.88-6.64s2.96-6.64,6.88-6.64,6.83,2.85,6.83,6.64-2.94,6.64-6.83,6.64Zm-.05-11.86c-2.92,0-5.13,2.24-5.13,5.21s2.21,5.16,5.13,5.16,5.18-2.27,5.18-5.16-2.23-5.21-5.18-5.21Z"/><path class="g" d="M39.18,11.15c-4.8,0-8.38,3.61-8.38,8.14s3.58,8.14,8.38,8.14,8.33-3.66,8.33-8.14-3.58-8.14-8.33-8.14h0Zm-.05,11.8c-2.15,0-3.63-1.63-3.63-3.66s1.48-3.71,3.63-3.71,3.68,1.63,3.68,3.71-1.48,3.66-3.68,3.66h0Zm19.88-8.97l-25.19,27.73,2.76,2.1,25.2-27.78-2.76-2.05h0Zm-3.47,17.77c-4.81,0-8.38,3.61-8.38,8.14s3.58,8.14,8.38,8.14,8.33-3.66,8.33-8.14-3.58-8.14-8.33-8.14h0Zm-.05,11.81c-2.15,0-3.63-1.63-3.63-3.66s1.48-3.71,3.63-3.71,3.68,1.63,3.68,3.71-1.48,3.66-3.68,3.66h0Z"/></g></g></g></svg>