<?xml version="1.0" encoding="UTF-8"?><svg xmlns="http://www.w3.org/2000/svg" viewBox="0 0 72 72"><defs><style>.d{fill:#373f60;}.e{fill:#f9ff9a;}</style></defs><g id="a"/><g id="b"><g id="c"><circle class="d" cx="36" cy="36" r="36"/><path class="e" d="M39.28,13.01v1.97c7.5,1.52,13.14,8.15,13.14,16.09v1.93c0,4.83,1.78,9.48,4.98,13.09l.76,.85c.86,.97,1.08,2.35,.54,3.53-.53,1.18-1.7,1.94-3,1.94H16.29c-1.29,0-2.47-.76-3-1.94-.53-1.18-.32-2.56,.54-3.53l.76-.85c3.21-3.61,4.98-8.26,4.98-13.09v-1.93c0-7.94,5.55-14.57,13.14-16.09v-1.97c0-1.81,1.47-3.28,3.29-3.28s3.29,1.47,3.29,3.28h0Zm-3.29,26.27c-1.82,0-3.29,1.47-3.29,3.28s1.47,3.28,3.29,3.28,3.29-1.47,3.29-3.28-1.47-3.28-3.29-3.28Zm2.46-15.6c0-1.36-1.1-2.46-2.46-2.46s-2.46,1.1-2.46,2.46v9.85c0,1.36,1.1,2.46,2.46,2.46s2.46-1.1,2.46-2.46v-9.85Zm-2.46,38.58c-1.75,0-3.42-.69-4.65-1.92-1.23-1.23-1.92-3-1.92-4.65h13.14c0,1.65-.69,3.42-1.92,4.65-1.23,1.23-3,1.92-4.65,1.92Z"/></g></g></svg>