<?xml version="1.0" encoding="UTF-8"?><svg xmlns="http://www.w3.org/2000/svg" viewBox="0 0 58.48 58.48"><defs><style>.d{fill:#171717;}.e{fill:none;}</style></defs><g id="a"/><g id="b"><g id="c"><g><rect class="e" width="58.48" height="58.48"/><path class="d" d="M26.8,7.87l2.43,4.14,2.43-4.14c1.64-2.78,4.63-4.49,7.85-4.49h.22c4.91,0,8.89,3.98,8.89,8.89,0,1.45-.35,2.74-.97,4.04h4.2c3.57,0,6.47,2.9,6.47,6.47v25.87c0,3.57-2.9,6.47-6.47,6.47H6.61c-3.57,0-6.47-2.9-6.47-6.47V22.77c0-3.57,2.89-6.47,6.47-6.47h4.2c-.62-1.3-.97-2.59-.97-4.04,0-4.91,3.98-8.89,8.89-8.89h.22c3.22,0,6.21,1.71,7.85,4.49Zm5.54,8.44h7.41c2.23,0,4.04-1.81,4.04-4.04s-1.81-4.04-4.04-4.04h-.22c-1.51,0-2.9,.8-3.67,2.1l-3.52,5.98Zm-3.1,7.02l-6.22,7.47c-.94,1.02-2.38,1.16-3.41,.3-1.02-.94-1.16-2.38-.3-3.42l5.44-6.53H6.61c-.89,0-1.62,.73-1.62,1.62v12.93H53.49v-12.93c0-.89-.73-1.62-1.62-1.62h-18.13l5.44,6.53c.86,1.03,.72,2.48-.3,3.42-1.03,.86-2.57,.72-3.42-.3l-6.22-7.47ZM4.99,42.17v6.47c0,.89,.72,1.62,1.62,1.62H51.87c.89,0,1.62-.73,1.62-1.62v-6.47H4.99ZM26.14,16.31l-3.52-5.98c-.77-1.3-2.16-2.1-3.67-2.1h-.22c-2.23,0-4.04,1.81-4.04,4.04s1.81,4.04,4.04,4.04h7.41Z"/></g></g></g></svg>