<?xml version="1.0" encoding="UTF-8"?><svg xmlns="http://www.w3.org/2000/svg" viewBox="0 0 84.49 56.99"><defs><style>.d{stroke-dasharray:0 0 7.64 4.77;}.d,.e{fill:none;stroke:#da181d;stroke-miterlimit:10;stroke-width:3px;}.f{fill:#faffb1;}.g{fill:#da181d;}</style></defs><g id="a"/><g id="b"><g id="c"><g><g><path class="f" d="M9.56,53.99c-3.68,0-6.56-2.83-6.56-6.44v-11.11c.03-.08,.08-.13,.09-.13l.18,.04h.64c4.38,0,7.95-3.52,7.95-7.85s-3.57-7.85-7.95-7.85h-.81l-.1-.15V9.44c0-3.61,2.88-6.44,6.56-6.44H74.93c3.68,0,6.56,2.83,6.56,6.44v11.12s0,.07,0,.09c0,0,0,0-.02,0-.02,0-.05,0-.08,0-4.38,0-7.95,3.52-7.95,7.85s3.57,7.85,7.95,7.85c.05,0,.09,0,.11,.01,0,.01,0,11.19,0,11.19,0,3.61-2.88,6.44-6.56,6.44H9.56Z"/><path class="g" d="M74.93,4.5c2.84,0,5.06,2.17,5.06,4.94v9.8c-4.55,.67-8.06,4.56-8.06,9.25s3.51,8.58,8.06,9.25v9.8c0,2.77-2.22,4.94-5.06,4.94H9.56c-2.84,0-5.06-2.17-5.06-4.94v-9.72c4.94-.3,8.87-4.37,8.87-9.33s-3.93-9.04-8.87-9.33V9.44c0-2.77,2.22-4.94,5.06-4.94H74.93m0-3H9.56C5.05,1.5,1.5,4.99,1.5,9.44v11.12c0,.48,.16,.95,.48,1.11,.32,.48,.81,.48,1.29,.48h.64c3.55,0,6.45,2.86,6.45,6.35s-2.9,6.35-6.45,6.35h-.64c-.08-.02-.17-.02-.25-.02-.72,0-1.38,.6-1.52,1.45v11.27c0,4.45,3.55,7.94,8.06,7.94H74.93c4.51,0,8.06-3.49,8.06-7.94v-11.12c0-.95-.64-1.59-1.61-1.59-3.55,0-6.45-2.86-6.45-6.35s2.9-6.35,6.45-6.35c.97,0,1.61-.64,1.61-1.59V9.44c0-4.45-3.55-7.94-8.06-7.94h0Z"/></g><g><line class="e" x1="18.37" y1="3.41" x2="18.37" y2="7.41"/><line class="d" x1="18.37" y1="12.18" x2="18.37" y2="47.03"/><line class="e" x1="18.37" y1="49.41" x2="18.37" y2="53.41"/></g><g><path class="g" d="M28.53,34.78h-3.04l2.73-13.79h8.6l-.53,2.69h-5.56l-.58,2.91h4.73l-.53,2.69h-4.73l-1.09,5.51Z"/><path class="g" d="M46.3,34.67h-3.3l-1.85-5.08h-1.29l-1.01,5.08h-2.99l2.69-13.57h4.53c2.76-.33,4.04,1.22,4.29,2.78,.32,1.99-.89,4.52-3.16,5.3l2.08,5.5Zm-5.92-7.65h1.36c1.13,.15,1.99-.47,2.41-1.11,.38-.58,.47-1.22,.23-1.65-.26-.45-.9-.66-1.81-.59h-1.53l-.66,3.34Z"/><path class="g" d="M55.71,34.67h-8.63l2.69-13.57h8.44l-.52,2.64h-5.46l-.5,2.52h4.62l-.53,2.66h-4.62l-.61,3.09h5.64l-.53,2.66Z"/><path class="g" d="M65.98,34.67h-8.63l2.69-13.57h8.44l-.52,2.64h-5.46l-.5,2.52h4.62l-.53,2.66h-4.62l-.61,3.09h5.64l-.53,2.66Z"/></g></g></g></g></svg>