<?xml version="1.0" encoding="UTF-8"?><svg xmlns="http://www.w3.org/2000/svg" viewBox="0 0 72 72"><defs><style>.d{fill:#9babbb;}.e{fill:none;}</style></defs><g id="a"/><g id="b"><g id="c"><g><rect class="e" width="72" height="72"/><g><path class="d" d="M36,10c14.34,0,26,11.66,26,26s-11.66,26-26,26-26-11.66-26-26S21.66,10,36,10m0-3c-16.02,0-29,12.98-29,29s12.98,29,29,29,29-12.98,29-29S52.02,7,36,7h0Z"/><path class="d" d="M36,17c3.86,0,7,3.14,7,7s-3.14,7-7,7-7-3.14-7-7,3.14-7,7-7m0-3c-5.52,0-10,4.48-10,10s4.48,10,10,10,10-4.48,10-10-4.48-10-10-10h0Z"/><path class="d" d="M52.5,51.5h-3c0-7.44-6.06-13.5-13.5-13.5s-13.5,6.06-13.5,13.5h-3c0-9.1,7.4-16.5,16.5-16.5s16.5,7.4,16.5,16.5Z"/></g></g></g></g></svg>