<?xml version="1.0" encoding="UTF-8"?><svg xmlns="http://www.w3.org/2000/svg" viewBox="0 0 72 72"><defs><style>.d{fill:#9babbb;}.e{fill:none;}</style></defs><g id="a"/><g id="b"><g id="c"><g><path class="d" d="M16.18,43.95c0-.91,.74-1.65,1.65-1.65H54.17c.91,0,1.65,.74,1.65,1.65s-.74,1.65-1.65,1.65H17.83c-.91,0-1.65-.74-1.65-1.65Z"/><path class="d" d="M16.18,50.56c0-.91,.74-1.65,1.65-1.65h6.61c.91,0,1.65,.74,1.65,1.65s-.74,1.65-1.65,1.65h-6.61c-.91,0-1.65-.74-1.65-1.65Z"/><path class="d" d="M44.26,48.91c.91,0,1.65,.74,1.65,1.65s-.74,1.65-1.65,1.65h-13.21c-.91,0-1.65-.74-1.65-1.65s.74-1.65,1.65-1.65h13.21Z"/><path class="d" d="M54.17,27.14c.62,0,1.13,.51,1.13,1.13v4.95c0,.62-.51,1.13-1.13,1.13h-6.61c-.62,0-1.13-.51-1.13-1.13v-4.95c0-.62,.51-1.13,1.13-1.13h6.61m0-3h-6.61c-2.28,0-4.13,1.85-4.13,4.13v4.95c0,2.28,1.85,4.13,4.13,4.13h6.61c2.28,0,4.13-1.85,4.13-4.13v-4.95c0-2.28-1.85-4.13-4.13-4.13h0Z"/><path class="d" d="M59.12,18.88c1.99,0,3.61,1.62,3.61,3.61V55.51c0,1.99-1.62,3.61-3.61,3.61H12.88c-1.99,0-3.61-1.62-3.61-3.61V22.49c0-1.99,1.62-3.61,3.61-3.61H59.12m0-3H12.88c-3.65,0-6.61,2.96-6.61,6.61V55.51c0,3.64,2.96,6.61,6.61,6.61H59.12c3.64,0,6.61-2.96,6.61-6.61V22.49c0-3.65-2.96-6.61-6.61-6.61h0Z"/><rect class="e" width="72" height="72"/></g></g></g></svg>