<?xml version="1.0" encoding="UTF-8"?><svg xmlns="http://www.w3.org/2000/svg" viewBox="0 0 72 72"><defs><style>.d{fill-rule:evenodd;}.d,.e{fill:#101010;}.f{fill:none;}</style></defs><g id="a"/><g id="b"><g id="c"><g><g><path class="d" d="M19.07,7.44C10.24,7.44,3.07,14.6,3.07,23.44s7.16,16,16,16,16-7.16,16-16S27.91,7.44,19.07,7.44Zm6.86,21.12c.39,.39,.39,1.02,0,1.41l-.33,.33c-.39,.39-1.02,.39-1.41,0l-4.95-4.95-4.95,4.95c-.39,.39-1.02,.39-1.41,0l-.33-.33c-.39-.39-.39-1.02,0-1.41l4.95-4.95-4.95-4.95c-.39-.39-.39-1.02,0-1.41l.33-.33c.39-.39,1.02-.39,1.41,0l4.95,4.95,4.95-4.95c.39-.39,1.02-.39,1.41,0l.33,.33c.39,.39,.39,1.02,0,1.41l-4.95,4.95,4.95,4.95Z"/><path class="e" d="M19.38,45.03c0-.91,.74-1.65,1.65-1.65H57.37c.91,0,1.65,.74,1.65,1.65s-.74,1.65-1.65,1.65H21.04c-.91,0-1.65-.74-1.65-1.65Z"/><path class="e" d="M19.38,51.64c0-.91,.74-1.65,1.65-1.65h6.61c.91,0,1.65,.74,1.65,1.65s-.74,1.65-1.65,1.65h-6.61c-.91,0-1.65-.74-1.65-1.65Z"/><path class="e" d="M47.46,49.99c.91,0,1.65,.74,1.65,1.65s-.74,1.65-1.65,1.65h-13.21c-.91,0-1.65-.74-1.65-1.65s.74-1.65,1.65-1.65h13.21Z"/><path class="e" d="M57.37,28.22c.62,0,1.13,.51,1.13,1.13v4.95c0,.62-.51,1.13-1.13,1.13h-6.61c-.62,0-1.13-.51-1.13-1.13v-4.95c0-.62,.51-1.13,1.13-1.13h6.61m0-3h-6.61c-2.28,0-4.13,1.85-4.13,4.13v4.95c0,2.28,1.85,4.13,4.13,4.13h6.61c2.28,0,4.13-1.85,4.13-4.13v-4.95c0-2.28-1.85-4.13-4.13-4.13h0Z"/><path class="e" d="M62.32,16.96h-28.63c.42,.95,.76,1.96,.99,3h27.64c1.99,0,3.61,1.62,3.61,3.61V56.59c0,1.99-1.62,3.61-3.61,3.61H16.08c-1.99,0-3.61-1.62-3.61-3.61v-18.59c-1.07-.49-2.07-1.09-3-1.78v20.37c0,3.64,2.96,6.61,6.61,6.61H62.32c3.64,0,6.61-2.96,6.61-6.61V23.56c0-3.65-2.96-6.61-6.61-6.61Z"/></g><rect class="f" width="72" height="72"/></g></g></g></svg>