<?xml version="1.0" encoding="UTF-8"?><svg xmlns="http://www.w3.org/2000/svg" viewBox="0 0 72 72"><defs><style>.d{fill-rule:evenodd;}.d,.e{fill:#9babbb;}.f{fill:none;}</style></defs><g id="a"/><g id="b"><g id="c"><g><g><path class="d" d="M18.62,4.04C9.79,4.04,2.62,11.2,2.62,20.04s7.16,16,16,16,16-7.16,16-16S27.46,4.04,18.62,4.04Zm6.86,21.12c.39,.39,.39,1.02,0,1.41l-.33,.33c-.39,.39-1.02,.39-1.41,0l-4.95-4.95-4.95,4.95c-.39,.39-1.02,.39-1.41,0l-.33-.33c-.39-.39-.39-1.02,0-1.41l4.95-4.95-4.95-4.95c-.39-.39-.39-1.02,0-1.41l.33-.33c.39-.39,1.02-.39,1.41,0l4.95,4.95,4.95-4.95c.39-.39,1.02-.39,1.41,0l.33,.33c.39,.39,.39,1.02,0,1.41l-4.95,4.95,4.95,4.95Z"/><path class="e" d="M40.38,40.96c7.44,0,13.5,6.06,13.5,13.5h3c0-9.1-7.4-16.5-16.5-16.5s-16.5,7.4-16.5,16.5h3c0-7.44,6.06-13.5,13.5-13.5Z"/><path class="e" d="M40.38,16.96c-2.17,0-4.17,.7-5.81,1.87,.03,.4,.06,.8,.06,1.2,0,1.26-.16,2.49-.44,3.67,1.17-2.22,3.51-3.74,6.19-3.74,3.86,0,7,3.14,7,7s-3.14,7-7,7-7-3.14-7-7c0-.31,.03-.6,.06-.9-.62,1.53-1.46,2.94-2.5,4.18,1.36,3.91,5.07,6.71,9.44,6.71,5.52,0,10-4.48,10-10s-4.48-10-10-10Z"/><path class="e" d="M40.38,9.96c-2.93,0-5.75,.44-8.41,1.24,.56,.85,1.05,1.76,1.45,2.71,2.22-.62,4.55-.96,6.97-.96,14.34,0,26,11.66,26,26s-11.66,26-26,26-26-11.66-26-26c0-1.17,.09-2.32,.24-3.45-1-.26-1.97-.61-2.89-1.05-.23,1.47-.35,2.97-.35,4.51,0,16.02,12.98,29,29,29s29-12.98,29-29-12.98-29-29-29Z"/></g><rect class="f" width="72" height="72"/></g></g></g></svg>