<?xml version="1.0" encoding="UTF-8"?><svg xmlns="http://www.w3.org/2000/svg" viewBox="0 0 72 72"><defs><style>.d{fill:#9babbb;}.e{fill:none;}</style></defs><g id="a"/><g id="b"><g id="c"><g><rect class="e" width="72" height="72"/><path class="d" d="M15.37,4.09c-.48,.5-1.38,1.48-2.33,2.67-2.2,2.78-3.36,5.12-3.36,6.78,0,3.09,2.55,5.6,5.69,5.6,2.75,0,5.69-1.47,5.69-5.6,0-1.65-1.16-4-3.36-6.78-.94-1.2-1.85-2.17-2.33-2.67h0Zm0,11.98c-1.41,0-2.56-1.14-2.56-2.53,0-.09,.03-.61,.59-1.71,.38-.74,.91-1.57,1.58-2.48l.4-.54,.4,.54c.67,.9,1.2,1.74,1.58,2.48,.56,1.1,.58,1.62,.58,1.71,0,.91-.22,1.56-.65,1.95-.32,.29-1.03,.58-1.92,.58h0ZM56.63,4.09c-.48,.5-1.38,1.48-2.33,2.67-1.53,1.93-3.36,4.68-3.36,6.78,0,3.09,2.55,5.6,5.69,5.6,2.75,0,5.69-1.47,5.69-5.6,0-1.95-1.7-4.53-3.36-6.78-.95-1.19-1.85-2.17-2.33-2.67h0Zm0,11.98c-1.41,0-2.56-1.14-2.56-2.53,0-.09,.03-.62,.58-1.71,.37-.74,.91-1.57,1.58-2.48l.4-.54,.4,.54c.68,.91,1.21,1.75,1.58,2.48,.55,1.09,.58,1.62,.58,1.71,0,.89-.21,1.54-.64,1.95-.32,.29-1.04,.58-1.92,.58h0ZM36,4.09c-.48,.5-1.38,1.48-2.33,2.67-2.2,2.78-3.36,5.12-3.36,6.78,0,3.09,2.55,5.6,5.69,5.6,2.75,0,5.69-1.47,5.69-5.6,0-1.95-1.7-4.53-3.36-6.78-.95-1.19-1.85-2.17-2.33-2.67h0Zm0,11.98c-1.41,0-2.56-1.14-2.56-2.53,0-.09,.03-.62,.58-1.71,.37-.73,.9-1.56,1.58-2.48l.4-.54,.4,.54c.68,.91,1.21,1.75,1.58,2.48,.55,1.09,.58,1.62,.58,1.71,0,.89-.21,1.54-.64,1.95-.32,.29-1.04,.58-1.92,.58h0Zm8.74,10.16H27.26c-3.45,0-6.51,2.28-7.45,5.53l-2.85,9.82-.18,.1c-3.15,1.74-5.03,4.89-5.03,8.44v16.26c0,.85,.7,1.53,1.56,1.53s1.56-.69,1.56-1.53v-4.56H57.13v4.56c0,.85,.7,1.53,1.56,1.53s1.56-.69,1.56-1.53v-16.26c0-3.57-1.92-6.72-5.14-8.44l-.19-.1-2.74-9.82c-.94-3.26-4-5.53-7.45-5.53h0Zm-24.21,14.23l2.27-7.86c.58-1.95,2.41-3.31,4.45-3.31h17.49c2.04,0,3.88,1.36,4.45,3.31l2.27,7.85H20.53Zm-5.66,18.29v-8.63c0-3.64,3-6.6,6.69-6.6h28.89c3.69,0,6.69,2.96,6.69,6.6v8.63H14.87Zm35.58-10.16c-1.43,0-2.59,1.14-2.59,2.55s1.16,2.55,2.59,2.55,2.59-1.14,2.59-2.55-1.16-2.55-2.59-2.55h0Zm-28.89,0c-1.43,0-2.59,1.14-2.59,2.55s1.16,2.55,2.59,2.55,2.59-1.14,2.59-2.55-1.16-2.55-2.59-2.55h0Z"/></g></g></g></svg>